<svg width="20" height="20" viewBox="0 0 20 20" fill="none" xmlns="http://www.w3.org/2000/svg">
<path d="M9.35645 4.56055C9.71872 4.44742 10.1118 4.46629 10.4639 4.61719L15.2109 6.65234L15.3311 6.70898C15.8748 6.99712 16.2053 7.5737 16.1797 8.18848L16.1689 8.32129L15.7227 11.8916C15.528 13.4485 14.7853 14.8817 13.6338 15.9375L13.3984 16.1436L10.8574 18.2607C10.3011 18.7243 9.50862 18.7535 8.92285 18.3477L8.80859 18.2607L6.26855 16.1436C5.06324 15.1391 4.2572 13.7404 3.99023 12.2012L3.94434 11.8916L3.49805 8.32129C3.40962 7.61387 3.79989 6.93331 4.45508 6.65234L9.20312 4.61719L9.35645 4.56055Z" fill="#121212" stroke="#FDFDFF" stroke-width="1.2" stroke-linecap="round"/>
<path d="M7.16667 11.6665L9.2354 13.7352C9.45851 13.9583 9.82996 13.9216 10.005 13.659L13 9.1665" stroke="#FDFDFF" stroke-width="1.2" stroke-linecap="round"/>
</svg>
