<svg width="358" height="43" viewBox="0 0 358 43" fill="none" xmlns="http://www.w3.org/2000/svg">
<path opacity="0.7" d="M10.9432 5.14773H9.17045C9.10227 4.76894 8.97538 4.43561 8.78977 4.14773C8.60417 3.85985 8.37689 3.61553 8.10795 3.41477C7.83902 3.21401 7.53788 3.0625 7.20455 2.96023C6.875 2.85795 6.52462 2.80682 6.15341 2.80682C5.48295 2.80682 4.88258 2.97538 4.35227 3.3125C3.82576 3.64962 3.40909 4.14394 3.10227 4.79545C2.79924 5.44697 2.64773 6.24242 2.64773 7.18182C2.64773 8.12879 2.79924 8.92803 3.10227 9.57955C3.40909 10.2311 3.82765 10.7235 4.35795 11.0568C4.88826 11.3902 5.48485 11.5568 6.14773 11.5568C6.51515 11.5568 6.86364 11.5076 7.19318 11.4091C7.52652 11.3068 7.82765 11.1572 8.09659 10.9602C8.36553 10.7633 8.5928 10.5227 8.77841 10.2386C8.9678 9.95076 9.09848 9.62121 9.17045 9.25L10.9432 9.25568C10.8485 9.82765 10.6648 10.3542 10.392 10.8352C10.1231 11.3125 9.77652 11.7254 9.35227 12.0739C8.93182 12.4186 8.45076 12.6856 7.90909 12.875C7.36742 13.0644 6.77652 13.1591 6.13636 13.1591C5.12879 13.1591 4.23106 12.9205 3.44318 12.4432C2.6553 11.9621 2.03409 11.2746 1.57955 10.3807C1.12879 9.48674 0.903409 8.42045 0.903409 7.18182C0.903409 5.93939 1.13068 4.87311 1.58523 3.98295C2.03977 3.08901 2.66098 2.40341 3.44886 1.92614C4.23674 1.44508 5.13258 1.20455 6.13636 1.20455C6.75379 1.20455 7.32955 1.29356 7.86364 1.47159C8.40152 1.64583 8.88447 1.90341 9.3125 2.24432C9.74053 2.58144 10.0947 2.99432 10.375 3.48295C10.6553 3.9678 10.8447 4.52273 10.9432 5.14773ZM12.9077 13V4.27273H14.5497V5.65909H14.6406C14.7997 5.18939 15.08 4.82008 15.4815 4.55114C15.8868 4.27841 16.3452 4.14205 16.8565 4.14205C16.9626 4.14205 17.0876 4.14583 17.2315 4.15341C17.3793 4.16098 17.4948 4.17045 17.5781 4.18182V5.80682C17.5099 5.78788 17.3887 5.76705 17.2145 5.74432C17.0402 5.7178 16.866 5.70455 16.6918 5.70455C16.2902 5.70455 15.9323 5.78977 15.6179 5.96023C15.3073 6.12689 15.0611 6.35985 14.8793 6.65909C14.6974 6.95455 14.6065 7.29167 14.6065 7.67045V13H12.9077ZM22.4972 13.1761C21.6373 13.1761 20.8968 12.9924 20.2756 12.625C19.6581 12.2538 19.1809 11.733 18.8438 11.0625C18.5104 10.3883 18.3438 9.59848 18.3438 8.69318C18.3438 7.79924 18.5104 7.01136 18.8438 6.32955C19.1809 5.64773 19.6506 5.11553 20.2528 4.73295C20.8589 4.35038 21.5672 4.15909 22.3778 4.15909C22.8703 4.15909 23.3475 4.24053 23.8097 4.40341C24.2718 4.56629 24.6866 4.82197 25.054 5.17045C25.4214 5.51894 25.7112 5.97159 25.9233 6.52841C26.1354 7.08144 26.2415 7.75379 26.2415 8.54545V9.14773H19.304V7.875H24.5767C24.5767 7.42803 24.4858 7.0322 24.304 6.6875C24.1222 6.33902 23.8665 6.06439 23.5369 5.86364C23.2112 5.66288 22.8286 5.5625 22.3892 5.5625C21.9119 5.5625 21.4953 5.67992 21.1392 5.91477C20.7869 6.14583 20.5142 6.44886 20.321 6.82386C20.1316 7.19508 20.0369 7.59848 20.0369 8.03409V9.02841C20.0369 9.61174 20.1392 10.108 20.3438 10.517C20.5521 10.9261 20.8419 11.2386 21.2131 11.4545C21.5843 11.6667 22.018 11.7727 22.5142 11.7727C22.8362 11.7727 23.1297 11.7273 23.3949 11.6364C23.66 11.5417 23.8892 11.4015 24.0824 11.2159C24.2756 11.0303 24.4233 10.8011 24.5256 10.5284L26.1335 10.8182C26.0047 11.2917 25.7737 11.7064 25.4403 12.0625C25.1108 12.4148 24.696 12.6894 24.196 12.8864C23.6998 13.0795 23.1335 13.1761 22.4972 13.1761ZM30.6662 13.1932C30.1132 13.1932 29.6132 13.0909 29.1662 12.8864C28.7192 12.678 28.3651 12.3769 28.1037 11.983C27.8461 11.589 27.7173 11.1061 27.7173 10.5341C27.7173 10.0417 27.812 9.63636 28.0014 9.31818C28.1908 9 28.4465 8.74811 28.7685 8.5625C29.0904 8.37689 29.4503 8.23674 29.848 8.14205C30.2457 8.04735 30.651 7.97538 31.0639 7.92614C31.5866 7.86553 32.0109 7.81629 32.3366 7.77841C32.6624 7.73674 32.8991 7.67045 33.0469 7.57955C33.1946 7.48864 33.2685 7.34091 33.2685 7.13636V7.09659C33.2685 6.60038 33.1283 6.21591 32.848 5.94318C32.5715 5.67045 32.1586 5.53409 31.6094 5.53409C31.0374 5.53409 30.5866 5.66098 30.2571 5.91477C29.9313 6.16477 29.706 6.44318 29.581 6.75L27.9844 6.38636C28.1738 5.85606 28.4503 5.42803 28.8139 5.10227C29.1813 4.77273 29.6037 4.53409 30.081 4.38636C30.5582 4.23485 31.0601 4.15909 31.5866 4.15909C31.9351 4.15909 32.3045 4.20076 32.6946 4.28409C33.0885 4.36364 33.456 4.51136 33.7969 4.72727C34.1416 4.94318 34.4238 5.25189 34.6435 5.65341C34.8632 6.05114 34.973 6.56818 34.973 7.20455V13H33.3139V11.8068H33.2457C33.1359 12.0265 32.9711 12.2424 32.7514 12.4545C32.5317 12.6667 32.2495 12.8428 31.9048 12.983C31.5601 13.1231 31.1473 13.1932 30.6662 13.1932ZM31.0355 11.8295C31.5052 11.8295 31.9067 11.7367 32.2401 11.5511C32.5772 11.3655 32.8329 11.1231 33.0071 10.8239C33.1851 10.5208 33.2741 10.197 33.2741 9.85227V8.72727C33.2135 8.78788 33.0961 8.8447 32.9219 8.89773C32.7514 8.94697 32.5563 8.99053 32.3366 9.02841C32.117 9.0625 31.9029 9.0947 31.6946 9.125C31.4863 9.15152 31.312 9.17424 31.1719 9.19318C30.8423 9.23485 30.5412 9.30492 30.2685 9.40341C29.9995 9.50189 29.7836 9.64394 29.6207 9.82955C29.4616 10.0114 29.3821 10.2538 29.3821 10.5568C29.3821 10.9773 29.5374 11.2955 29.848 11.5114C30.1586 11.7235 30.5545 11.8295 31.0355 11.8295ZM41.3097 4.27273V5.63636H36.5426V4.27273H41.3097ZM37.821 2.18182H39.5199V10.4375C39.5199 10.767 39.5691 11.0152 39.6676 11.1818C39.7661 11.3447 39.893 11.4564 40.0483 11.517C40.2074 11.5739 40.3797 11.6023 40.5653 11.6023C40.7017 11.6023 40.821 11.5928 40.9233 11.5739C41.0256 11.5549 41.1051 11.5398 41.1619 11.5284L41.4688 12.9318C41.3703 12.9697 41.2301 13.0076 41.0483 13.0455C40.8665 13.0871 40.6392 13.1098 40.3665 13.1136C39.9195 13.1212 39.5028 13.0417 39.1165 12.875C38.7301 12.7083 38.4176 12.4508 38.179 12.1023C37.9403 11.7538 37.821 11.3163 37.821 10.7898V2.18182ZM46.8565 13.1761C45.9967 13.1761 45.2562 12.9924 44.6349 12.625C44.0175 12.2538 43.5402 11.733 43.2031 11.0625C42.8698 10.3883 42.7031 9.59848 42.7031 8.69318C42.7031 7.79924 42.8698 7.01136 43.2031 6.32955C43.5402 5.64773 44.0099 5.11553 44.6122 4.73295C45.2183 4.35038 45.9266 4.15909 46.7372 4.15909C47.2296 4.15909 47.7069 4.24053 48.169 4.40341C48.6312 4.56629 49.0459 4.82197 49.4134 5.17045C49.7808 5.51894 50.0705 5.97159 50.2827 6.52841C50.4948 7.08144 50.6009 7.75379 50.6009 8.54545V9.14773H43.6634V7.875H48.9361C48.9361 7.42803 48.8452 7.0322 48.6634 6.6875C48.4815 6.33902 48.2259 6.06439 47.8963 5.86364C47.5705 5.66288 47.188 5.5625 46.7486 5.5625C46.2713 5.5625 45.8546 5.67992 45.4986 5.91477C45.1463 6.14583 44.8736 6.44886 44.6804 6.82386C44.491 7.19508 44.3963 7.59848 44.3963 8.03409V9.02841C44.3963 9.61174 44.4986 10.108 44.7031 10.517C44.9115 10.9261 45.2012 11.2386 45.5724 11.4545C45.9437 11.6667 46.3774 11.7727 46.8736 11.7727C47.1955 11.7727 47.4891 11.7273 47.7543 11.6364C48.0194 11.5417 48.2486 11.4015 48.4418 11.2159C48.6349 11.0303 48.7827 10.8011 48.8849 10.5284L50.4929 10.8182C50.3641 11.2917 50.133 11.7064 49.7997 12.0625C49.4702 12.4148 49.0554 12.6894 48.5554 12.8864C48.0592 13.0795 47.4929 13.1761 46.8565 13.1761ZM59.2599 13.1932C58.7069 13.1932 58.2069 13.0909 57.7599 12.8864C57.313 12.678 56.9588 12.3769 56.6974 11.983C56.4399 11.589 56.3111 11.1061 56.3111 10.5341C56.3111 10.0417 56.4058 9.63636 56.5952 9.31818C56.7846 9 57.0402 8.74811 57.3622 8.5625C57.6842 8.37689 58.044 8.23674 58.4418 8.14205C58.8395 8.04735 59.2448 7.97538 59.6577 7.92614C60.1804 7.86553 60.6046 7.81629 60.9304 7.77841C61.2562 7.73674 61.4929 7.67045 61.6406 7.57955C61.7884 7.48864 61.8622 7.34091 61.8622 7.13636V7.09659C61.8622 6.60038 61.7221 6.21591 61.4418 5.94318C61.1652 5.67045 60.7524 5.53409 60.2031 5.53409C59.6312 5.53409 59.1804 5.66098 58.8509 5.91477C58.5251 6.16477 58.2997 6.44318 58.1747 6.75L56.5781 6.38636C56.7675 5.85606 57.044 5.42803 57.4077 5.10227C57.7751 4.77273 58.1974 4.53409 58.6747 4.38636C59.152 4.23485 59.6539 4.15909 60.1804 4.15909C60.5289 4.15909 60.8982 4.20076 61.2884 4.28409C61.6823 4.36364 62.0497 4.51136 62.3906 4.72727C62.7353 4.94318 63.0175 5.25189 63.2372 5.65341C63.4569 6.05114 63.5668 6.56818 63.5668 7.20455V13H61.9077V11.8068H61.8395C61.7296 12.0265 61.5649 12.2424 61.3452 12.4545C61.1255 12.6667 60.8433 12.8428 60.4986 12.983C60.1539 13.1231 59.741 13.1932 59.2599 13.1932ZM59.6293 11.8295C60.099 11.8295 60.5005 11.7367 60.8338 11.5511C61.1709 11.3655 61.4266 11.1231 61.6009 10.8239C61.7789 10.5208 61.8679 10.197 61.8679 9.85227V8.72727C61.8073 8.78788 61.6899 8.8447 61.5156 8.89773C61.3452 8.94697 61.1501 8.99053 60.9304 9.02841C60.7107 9.0625 60.4967 9.0947 60.2884 9.125C60.08 9.15152 59.9058 9.17424 59.7656 9.19318C59.4361 9.23485 59.1349 9.30492 58.8622 9.40341C58.5933 9.50189 58.3774 9.64394 58.2145 9.82955C58.0554 10.0114 57.9759 10.2538 57.9759 10.5568C57.9759 10.9773 58.1312 11.2955 58.4418 11.5114C58.7524 11.7235 59.1482 11.8295 59.6293 11.8295ZM71.7628 7.81818V13H70.0639V4.27273H71.6946V5.69318H71.8026C72.0033 5.23106 72.3177 4.85985 72.7457 4.57955C73.1776 4.29924 73.7211 4.15909 74.3764 4.15909C74.9711 4.15909 75.492 4.28409 75.9389 4.53409C76.3859 4.7803 76.7325 5.14773 76.9787 5.63636C77.2249 6.125 77.348 6.72917 77.348 7.44886V13H75.6491V7.65341C75.6491 7.02083 75.4844 6.52652 75.1548 6.17045C74.8253 5.81061 74.3726 5.63068 73.7969 5.63068C73.4029 5.63068 73.0526 5.71591 72.7457 5.88636C72.4427 6.05682 72.2022 6.30682 72.0241 6.63636C71.8499 6.96212 71.7628 7.35606 71.7628 7.81818ZM83.3878 13.1761C82.5279 13.1761 81.7874 12.9924 81.1662 12.625C80.5488 12.2538 80.0715 11.733 79.7344 11.0625C79.401 10.3883 79.2344 9.59848 79.2344 8.69318C79.2344 7.79924 79.401 7.01136 79.7344 6.32955C80.0715 5.64773 80.5412 5.11553 81.1435 4.73295C81.7495 4.35038 82.4579 4.15909 83.2685 4.15909C83.7609 4.15909 84.2382 4.24053 84.7003 4.40341C85.1624 4.56629 85.5772 4.82197 85.9446 5.17045C86.312 5.51894 86.6018 5.97159 86.8139 6.52841C87.026 7.08144 87.1321 7.75379 87.1321 8.54545V9.14773H80.1946V7.875H85.4673C85.4673 7.42803 85.3764 7.0322 85.1946 6.6875C85.0128 6.33902 84.7571 6.06439 84.4276 5.86364C84.1018 5.66288 83.7192 5.5625 83.2798 5.5625C82.8026 5.5625 82.3859 5.67992 82.0298 5.91477C81.6776 6.14583 81.4048 6.44886 81.2116 6.82386C81.0223 7.19508 80.9276 7.59848 80.9276 8.03409V9.02841C80.9276 9.61174 81.0298 10.108 81.2344 10.517C81.4427 10.9261 81.7325 11.2386 82.1037 11.4545C82.4749 11.6667 82.9086 11.7727 83.4048 11.7727C83.7268 11.7727 84.0204 11.7273 84.2855 11.6364C84.5507 11.5417 84.7798 11.4015 84.973 11.2159C85.1662 11.0303 85.3139 10.8011 85.4162 10.5284L87.0241 10.8182C86.8954 11.2917 86.6643 11.7064 86.331 12.0625C86.0014 12.4148 85.5866 12.6894 85.0866 12.8864C84.5904 13.0795 84.0241 13.1761 83.3878 13.1761ZM90.8935 13L88.3253 4.27273H90.081L91.7912 10.6818H91.8764L93.5923 4.27273H95.348L97.0526 10.6534H97.1378L98.8366 4.27273H100.592L98.0298 13H96.2969L94.5241 6.69886H94.3935L92.6207 13H90.8935ZM106.439 16.2727V4.27273H108.098V5.6875H108.24C108.339 5.50568 108.481 5.29545 108.666 5.05682C108.852 4.81818 109.109 4.60985 109.439 4.43182C109.768 4.25 110.204 4.15909 110.746 4.15909C111.45 4.15909 112.079 4.33712 112.632 4.69318C113.185 5.04924 113.619 5.5625 113.933 6.23295C114.251 6.90341 114.411 7.71023 114.411 8.65341C114.411 9.59659 114.253 10.4053 113.939 11.0795C113.625 11.75 113.193 12.267 112.643 12.6307C112.094 12.9905 111.467 13.1705 110.763 13.1705C110.232 13.1705 109.799 13.0814 109.462 12.9034C109.128 12.7254 108.867 12.517 108.678 12.2784C108.488 12.0398 108.342 11.8277 108.24 11.642H108.138V16.2727H106.439ZM108.104 8.63636C108.104 9.25 108.193 9.78788 108.371 10.25C108.549 10.7121 108.806 11.0739 109.143 11.3352C109.481 11.5928 109.893 11.7216 110.382 11.7216C110.89 11.7216 111.314 11.5871 111.655 11.3182C111.996 11.0455 112.253 10.6761 112.428 10.2102C112.606 9.74432 112.695 9.2197 112.695 8.63636C112.695 8.06061 112.607 7.54356 112.433 7.08523C112.263 6.62689 112.005 6.26515 111.661 6C111.32 5.73485 110.893 5.60227 110.382 5.60227C109.89 5.60227 109.473 5.72917 109.132 5.98295C108.795 6.23674 108.539 6.59091 108.365 7.04545C108.191 7.5 108.104 8.0303 108.104 8.63636ZM118.854 13.1932C118.301 13.1932 117.801 13.0909 117.354 12.8864C116.907 12.678 116.553 12.3769 116.291 11.983C116.034 11.589 115.905 11.1061 115.905 10.5341C115.905 10.0417 116 9.63636 116.189 9.31818C116.378 9 116.634 8.74811 116.956 8.5625C117.278 8.37689 117.638 8.23674 118.036 8.14205C118.433 8.04735 118.839 7.97538 119.251 7.92614C119.774 7.86553 120.198 7.81629 120.524 7.77841C120.85 7.73674 121.087 7.67045 121.234 7.57955C121.382 7.48864 121.456 7.34091 121.456 7.13636V7.09659C121.456 6.60038 121.316 6.21591 121.036 5.94318C120.759 5.67045 120.346 5.53409 119.797 5.53409C119.225 5.53409 118.774 5.66098 118.445 5.91477C118.119 6.16477 117.893 6.44318 117.768 6.75L116.172 6.38636C116.361 5.85606 116.638 5.42803 117.001 5.10227C117.369 4.77273 117.791 4.53409 118.268 4.38636C118.746 4.23485 119.248 4.15909 119.774 4.15909C120.123 4.15909 120.492 4.20076 120.882 4.28409C121.276 4.36364 121.643 4.51136 121.984 4.72727C122.329 4.94318 122.611 5.25189 122.831 5.65341C123.051 6.05114 123.161 6.56818 123.161 7.20455V13H121.501V11.8068H121.433C121.323 12.0265 121.159 12.2424 120.939 12.4545C120.719 12.6667 120.437 12.8428 120.092 12.983C119.748 13.1231 119.335 13.1932 118.854 13.1932ZM119.223 11.8295C119.693 11.8295 120.094 11.7367 120.428 11.5511C120.765 11.3655 121.02 11.1231 121.195 10.8239C121.373 10.5208 121.462 10.197 121.462 9.85227V8.72727C121.401 8.78788 121.284 8.8447 121.109 8.89773C120.939 8.94697 120.744 8.99053 120.524 9.02841C120.304 9.0625 120.09 9.0947 119.882 9.125C119.674 9.15152 119.5 9.17424 119.359 9.19318C119.03 9.23485 118.729 9.30492 118.456 9.40341C118.187 9.50189 117.971 9.64394 117.808 9.82955C117.649 10.0114 117.57 10.2538 117.57 10.5568C117.57 10.9773 117.725 11.2955 118.036 11.5114C118.346 11.7235 118.742 11.8295 119.223 11.8295ZM131.963 6.40341L130.423 6.67614C130.359 6.47917 130.257 6.29167 130.116 6.11364C129.98 5.93561 129.795 5.78977 129.56 5.67614C129.325 5.5625 129.031 5.50568 128.679 5.50568C128.198 5.50568 127.796 5.61364 127.474 5.82955C127.152 6.04167 126.991 6.31629 126.991 6.65341C126.991 6.94508 127.099 7.17992 127.315 7.35795C127.531 7.53598 127.88 7.68182 128.361 7.79545L129.747 8.11364C130.55 8.29924 131.149 8.58523 131.543 8.97159C131.937 9.35795 132.134 9.85985 132.134 10.4773C132.134 11 131.982 11.4659 131.679 11.875C131.38 12.2803 130.961 12.5985 130.423 12.8295C129.889 13.0606 129.27 13.1761 128.565 13.1761C127.588 13.1761 126.791 12.9678 126.173 12.5511C125.556 12.1307 125.177 11.5341 125.037 10.7614L126.679 10.5114C126.781 10.9394 126.991 11.2633 127.31 11.483C127.628 11.6989 128.043 11.8068 128.554 11.8068C129.111 11.8068 129.556 11.6913 129.889 11.4602C130.223 11.2254 130.389 10.9394 130.389 10.6023C130.389 10.3295 130.287 10.1004 130.082 9.91477C129.882 9.72917 129.573 9.58902 129.156 9.49432L127.679 9.17045C126.865 8.98485 126.262 8.68939 125.872 8.28409C125.486 7.87879 125.293 7.36553 125.293 6.74432C125.293 6.22917 125.437 5.77841 125.724 5.39205C126.012 5.00568 126.41 4.70455 126.918 4.48864C127.425 4.26894 128.007 4.15909 128.662 4.15909C129.605 4.15909 130.348 4.36364 130.889 4.77273C131.431 5.17803 131.789 5.72159 131.963 6.40341ZM140.541 6.40341L139.001 6.67614C138.937 6.47917 138.835 6.29167 138.695 6.11364C138.558 5.93561 138.373 5.78977 138.138 5.67614C137.903 5.5625 137.609 5.50568 137.257 5.50568C136.776 5.50568 136.375 5.61364 136.053 5.82955C135.731 6.04167 135.57 6.31629 135.57 6.65341C135.57 6.94508 135.678 7.17992 135.893 7.35795C136.109 7.53598 136.458 7.68182 136.939 7.79545L138.325 8.11364C139.128 8.29924 139.727 8.58523 140.121 8.97159C140.515 9.35795 140.712 9.85985 140.712 10.4773C140.712 11 140.56 11.4659 140.257 11.875C139.958 12.2803 139.539 12.5985 139.001 12.8295C138.467 13.0606 137.848 13.1761 137.143 13.1761C136.166 13.1761 135.369 12.9678 134.751 12.5511C134.134 12.1307 133.755 11.5341 133.615 10.7614L135.257 10.5114C135.359 10.9394 135.57 11.2633 135.888 11.483C136.206 11.6989 136.621 11.8068 137.132 11.8068C137.689 11.8068 138.134 11.6913 138.467 11.4602C138.801 11.2254 138.967 10.9394 138.967 10.6023C138.967 10.3295 138.865 10.1004 138.661 9.91477C138.46 9.72917 138.151 9.58902 137.734 9.49432L136.257 9.17045C135.443 8.98485 134.84 8.68939 134.45 8.28409C134.064 7.87879 133.871 7.36553 133.871 6.74432C133.871 6.22917 134.015 5.77841 134.303 5.39205C134.59 5.00568 134.988 4.70455 135.496 4.48864C136.003 4.26894 136.585 4.15909 137.24 4.15909C138.183 4.15909 138.926 4.36364 139.467 4.77273C140.009 5.17803 140.367 5.72159 140.541 6.40341ZM144.472 13L141.903 4.27273H143.659L145.369 10.6818H145.455L147.17 4.27273H148.926L150.631 10.6534H150.716L152.415 4.27273H154.17L151.608 13H149.875L148.102 6.69886H147.972L146.199 13H144.472ZM159.193 13.1761C158.375 13.1761 157.661 12.9886 157.051 12.6136C156.441 12.2386 155.968 11.714 155.631 11.0398C155.294 10.3655 155.125 9.57765 155.125 8.67614C155.125 7.77083 155.294 6.97917 155.631 6.30114C155.968 5.62311 156.441 5.09659 157.051 4.72159C157.661 4.34659 158.375 4.15909 159.193 4.15909C160.011 4.15909 160.725 4.34659 161.335 4.72159C161.945 5.09659 162.419 5.62311 162.756 6.30114C163.093 6.97917 163.261 7.77083 163.261 8.67614C163.261 9.57765 163.093 10.3655 162.756 11.0398C162.419 11.714 161.945 12.2386 161.335 12.6136C160.725 12.9886 160.011 13.1761 159.193 13.1761ZM159.199 11.75C159.729 11.75 160.169 11.6098 160.517 11.3295C160.866 11.0492 161.123 10.6761 161.29 10.2102C161.46 9.74432 161.545 9.23106 161.545 8.67045C161.545 8.11364 161.46 7.60227 161.29 7.13636C161.123 6.66667 160.866 6.28977 160.517 6.00568C160.169 5.72159 159.729 5.57955 159.199 5.57955C158.665 5.57955 158.222 5.72159 157.869 6.00568C157.521 6.28977 157.261 6.66667 157.091 7.13636C156.924 7.60227 156.841 8.11364 156.841 8.67045C156.841 9.23106 156.924 9.74432 157.091 10.2102C157.261 10.6761 157.521 11.0492 157.869 11.3295C158.222 11.6098 158.665 11.75 159.199 11.75ZM165.158 13V4.27273H166.8V5.65909H166.891C167.05 5.18939 167.33 4.82008 167.732 4.55114C168.137 4.27841 168.595 4.14205 169.107 4.14205C169.213 4.14205 169.338 4.14583 169.482 4.15341C169.629 4.16098 169.745 4.17045 169.828 4.18182V5.80682C169.76 5.78788 169.639 5.76705 169.464 5.74432C169.29 5.7178 169.116 5.70455 168.942 5.70455C168.54 5.70455 168.182 5.78977 167.868 5.96023C167.557 6.12689 167.311 6.35985 167.129 6.65909C166.947 6.95455 166.857 7.29167 166.857 7.67045V13H165.158ZM174.253 13.1705C173.548 13.1705 172.92 12.9905 172.366 12.6307C171.817 12.267 171.385 11.75 171.071 11.0795C170.76 10.4053 170.605 9.59659 170.605 8.65341C170.605 7.71023 170.762 6.90341 171.077 6.23295C171.395 5.5625 171.83 5.04924 172.384 4.69318C172.937 4.33712 173.563 4.15909 174.264 4.15909C174.806 4.15909 175.241 4.25 175.571 4.43182C175.904 4.60985 176.162 4.81818 176.344 5.05682C176.529 5.29545 176.673 5.50568 176.776 5.6875H176.878V1.36364H178.577V13H176.918V11.642H176.776C176.673 11.8277 176.526 12.0398 176.332 12.2784C176.143 12.517 175.882 12.7254 175.548 12.9034C175.215 13.0814 174.783 13.1705 174.253 13.1705ZM174.628 11.7216C175.116 11.7216 175.529 11.5928 175.866 11.3352C176.207 11.0739 176.465 10.7121 176.639 10.25C176.817 9.78788 176.906 9.25 176.906 8.63636C176.906 8.0303 176.819 7.5 176.645 7.04545C176.471 6.59091 176.215 6.23674 175.878 5.98295C175.541 5.72917 175.124 5.60227 174.628 5.60227C174.116 5.60227 173.69 5.73485 173.349 6C173.009 6.26515 172.751 6.62689 172.577 7.08523C172.406 7.54356 172.321 8.06061 172.321 8.63636C172.321 9.2197 172.408 9.74432 172.582 10.2102C172.757 10.6761 173.014 11.0455 173.355 11.3182C173.7 11.5871 174.124 11.7216 174.628 11.7216ZM182.121 13.108C181.81 13.108 181.543 12.9981 181.32 12.7784C181.096 12.5549 180.984 12.286 180.984 11.9716C180.984 11.661 181.096 11.3958 181.32 11.1761C181.543 10.9527 181.81 10.8409 182.121 10.8409C182.431 10.8409 182.698 10.9527 182.922 11.1761C183.145 11.3958 183.257 11.661 183.257 11.9716C183.257 12.1799 183.204 12.3712 183.098 12.5455C182.996 12.7159 182.859 12.8523 182.689 12.9545C182.518 13.0568 182.329 13.108 182.121 13.108ZM189.716 13V1.36364H197.011V2.875H191.472V6.42045H196.631V7.92614H191.472V11.4886H197.08V13H189.716ZM200.919 7.81818V13H199.22V4.27273H200.851V5.69318H200.959C201.16 5.23106 201.474 4.85985 201.902 4.57955C202.334 4.29924 202.877 4.15909 203.533 4.15909C204.127 4.15909 204.648 4.28409 205.095 4.53409C205.542 4.7803 205.889 5.14773 206.135 5.63636C206.381 6.125 206.504 6.72917 206.504 7.44886V13H204.805V7.65341C204.805 7.02083 204.641 6.52652 204.311 6.17045C203.982 5.81061 203.529 5.63068 202.953 5.63068C202.559 5.63068 202.209 5.71591 201.902 5.88636C201.599 6.05682 201.358 6.30682 201.18 6.63636C201.006 6.96212 200.919 7.35606 200.919 7.81818ZM215.322 6.40341L213.783 6.67614C213.718 6.47917 213.616 6.29167 213.476 6.11364C213.339 5.93561 213.154 5.78977 212.919 5.67614C212.684 5.5625 212.391 5.50568 212.038 5.50568C211.557 5.50568 211.156 5.61364 210.834 5.82955C210.512 6.04167 210.351 6.31629 210.351 6.65341C210.351 6.94508 210.459 7.17992 210.675 7.35795C210.891 7.53598 211.239 7.68182 211.72 7.79545L213.107 8.11364C213.91 8.29924 214.508 8.58523 214.902 8.97159C215.296 9.35795 215.493 9.85985 215.493 10.4773C215.493 11 215.341 11.4659 215.038 11.875C214.739 12.2803 214.321 12.5985 213.783 12.8295C213.249 13.0606 212.629 13.1761 211.925 13.1761C210.947 13.1761 210.15 12.9678 209.533 12.5511C208.915 12.1307 208.536 11.5341 208.396 10.7614L210.038 10.5114C210.141 10.9394 210.351 11.2633 210.669 11.483C210.987 11.6989 211.402 11.8068 211.913 11.8068C212.47 11.8068 212.915 11.6913 213.249 11.4602C213.582 11.2254 213.749 10.9394 213.749 10.6023C213.749 10.3295 213.646 10.1004 213.442 9.91477C213.241 9.72917 212.932 9.58902 212.516 9.49432L211.038 9.17045C210.224 8.98485 209.622 8.68939 209.232 8.28409C208.845 7.87879 208.652 7.36553 208.652 6.74432C208.652 6.22917 208.796 5.77841 209.084 5.39205C209.372 5.00568 209.769 4.70455 210.277 4.48864C210.785 4.26894 211.366 4.15909 212.021 4.15909C212.964 4.15909 213.707 4.36364 214.249 4.77273C214.79 5.17803 215.148 5.72159 215.322 6.40341ZM222.889 9.38068V4.27273H224.594V13H222.923V11.4886H222.832C222.632 11.9545 222.31 12.3428 221.866 12.6534C221.427 12.9602 220.88 13.1136 220.224 13.1136C219.664 13.1136 219.168 12.9905 218.736 12.7443C218.308 12.4943 217.971 12.125 217.724 11.6364C217.482 11.1477 217.361 10.5436 217.361 9.82386V4.27273H219.06V9.61932C219.06 10.214 219.224 10.6875 219.554 11.0398C219.884 11.392 220.312 11.5682 220.838 11.5682C221.156 11.5682 221.473 11.4886 221.787 11.3295C222.105 11.1705 222.368 10.9299 222.577 10.608C222.789 10.286 222.893 9.87689 222.889 9.38068ZM226.876 13V4.27273H228.518V5.65909H228.609C228.768 5.18939 229.049 4.82008 229.45 4.55114C229.856 4.27841 230.314 4.14205 230.825 4.14205C230.931 4.14205 231.056 4.14583 231.2 4.15341C231.348 4.16098 231.464 4.17045 231.547 4.18182V5.80682C231.479 5.78788 231.357 5.76705 231.183 5.74432C231.009 5.7178 230.835 5.70455 230.661 5.70455C230.259 5.70455 229.901 5.78977 229.587 5.96023C229.276 6.12689 229.03 6.35985 228.848 6.65909C228.666 6.95455 228.575 7.29167 228.575 7.67045V13H226.876ZM236.466 13.1761C235.606 13.1761 234.866 12.9924 234.244 12.625C233.627 12.2538 233.15 11.733 232.812 11.0625C232.479 10.3883 232.312 9.59848 232.312 8.69318C232.312 7.79924 232.479 7.01136 232.812 6.32955C233.15 5.64773 233.619 5.11553 234.222 4.73295C234.828 4.35038 235.536 4.15909 236.347 4.15909C236.839 4.15909 237.316 4.24053 237.778 4.40341C238.241 4.56629 238.655 4.82197 239.023 5.17045C239.39 5.51894 239.68 5.97159 239.892 6.52841C240.104 7.08144 240.21 7.75379 240.21 8.54545V9.14773H233.273V7.875H238.545C238.545 7.42803 238.455 7.0322 238.273 6.6875C238.091 6.33902 237.835 6.06439 237.506 5.86364C237.18 5.66288 236.797 5.5625 236.358 5.5625C235.881 5.5625 235.464 5.67992 235.108 5.91477C234.756 6.14583 234.483 6.44886 234.29 6.82386C234.1 7.19508 234.006 7.59848 234.006 8.03409V9.02841C234.006 9.61174 234.108 10.108 234.312 10.517C234.521 10.9261 234.811 11.2386 235.182 11.4545C235.553 11.6667 235.987 11.7727 236.483 11.7727C236.805 11.7727 237.098 11.7273 237.364 11.6364C237.629 11.5417 237.858 11.4015 238.051 11.2159C238.244 11.0303 238.392 10.8011 238.494 10.5284L240.102 10.8182C239.973 11.2917 239.742 11.7064 239.409 12.0625C239.08 12.4148 238.665 12.6894 238.165 12.8864C237.669 13.0795 237.102 13.1761 236.466 13.1761ZM246.33 13V4.27273H248.028V13H246.33ZM247.188 2.92614C246.892 2.92614 246.638 2.82765 246.426 2.63068C246.218 2.42992 246.114 2.19129 246.114 1.91477C246.114 1.63447 246.218 1.39583 246.426 1.19886C246.638 0.998106 246.892 0.897727 247.188 0.897727C247.483 0.897727 247.735 0.998106 247.943 1.19886C248.155 1.39583 248.261 1.63447 248.261 1.91477C248.261 2.19129 248.155 2.42992 247.943 2.63068C247.735 2.82765 247.483 2.92614 247.188 2.92614ZM254.388 4.27273V5.63636H249.621V4.27273H254.388ZM250.899 2.18182H252.598V10.4375C252.598 10.767 252.647 11.0152 252.746 11.1818C252.844 11.3447 252.971 11.4564 253.126 11.517C253.286 11.5739 253.458 11.6023 253.643 11.6023C253.78 11.6023 253.899 11.5928 254.001 11.5739C254.104 11.5549 254.183 11.5398 254.24 11.5284L254.547 12.9318C254.448 12.9697 254.308 13.0076 254.126 13.0455C253.945 13.0871 253.717 13.1098 253.445 13.1136C252.998 13.1212 252.581 13.0417 252.195 12.875C251.808 12.7083 251.496 12.4508 251.257 12.1023C251.018 11.7538 250.899 11.3163 250.899 10.7898V2.18182ZM263.768 13.1705C263.064 13.1705 262.435 12.9905 261.882 12.6307C261.333 12.267 260.901 11.75 260.587 11.0795C260.276 10.4053 260.121 9.59659 260.121 8.65341C260.121 7.71023 260.278 6.90341 260.592 6.23295C260.911 5.5625 261.346 5.04924 261.899 4.69318C262.452 4.33712 263.079 4.15909 263.78 4.15909C264.321 4.15909 264.757 4.25 265.087 4.43182C265.42 4.60985 265.678 4.81818 265.859 5.05682C266.045 5.29545 266.189 5.50568 266.291 5.6875H266.393V1.36364H268.092V13H266.433V11.642H266.291C266.189 11.8277 266.041 12.0398 265.848 12.2784C265.659 12.517 265.397 12.7254 265.064 12.9034C264.731 13.0814 264.299 13.1705 263.768 13.1705ZM264.143 11.7216C264.632 11.7216 265.045 11.5928 265.382 11.3352C265.723 11.0739 265.981 10.7121 266.155 10.25C266.333 9.78788 266.422 9.25 266.422 8.63636C266.422 8.0303 266.335 7.5 266.161 7.04545C265.986 6.59091 265.731 6.23674 265.393 5.98295C265.056 5.72917 264.64 5.60227 264.143 5.60227C263.632 5.60227 263.206 5.73485 262.865 6C262.524 6.26515 262.267 6.62689 262.092 7.08523C261.922 7.54356 261.837 8.06061 261.837 8.63636C261.837 9.2197 261.924 9.74432 262.098 10.2102C262.272 10.6761 262.53 11.0455 262.871 11.3182C263.215 11.5871 263.64 11.7216 264.143 11.7216ZM270.517 13V4.27273H272.216V13H270.517ZM271.375 2.92614C271.08 2.92614 270.826 2.82765 270.614 2.63068C270.405 2.42992 270.301 2.19129 270.301 1.91477C270.301 1.63447 270.405 1.39583 270.614 1.19886C270.826 0.998106 271.08 0.897727 271.375 0.897727C271.67 0.897727 271.922 0.998106 272.131 1.19886C272.343 1.39583 272.449 1.63447 272.449 1.91477C272.449 2.19129 272.343 2.42992 272.131 2.63068C271.922 2.82765 271.67 2.92614 271.375 2.92614ZM278.655 4.27273V5.63636H273.723V4.27273H278.655ZM275.075 13V3.26136C275.075 2.71591 275.195 2.26326 275.433 1.90341C275.672 1.53977 275.988 1.26894 276.382 1.09091C276.776 0.90909 277.204 0.818181 277.666 0.818181C278.007 0.818181 278.299 0.84659 278.541 0.903409C278.784 0.956439 278.964 1.00568 279.081 1.05114L278.683 2.42614C278.604 2.40341 278.501 2.37689 278.376 2.34659C278.251 2.3125 278.1 2.29545 277.922 2.29545C277.509 2.29545 277.214 2.39773 277.036 2.60227C276.861 2.80682 276.774 3.10227 276.774 3.48864V13H275.075ZM284.561 4.27273V5.63636H279.629V4.27273H284.561ZM280.982 13V3.26136C280.982 2.71591 281.101 2.26326 281.339 1.90341C281.578 1.53977 281.894 1.26894 282.288 1.09091C282.682 0.90909 283.11 0.818181 283.572 0.818181C283.913 0.818181 284.205 0.84659 284.447 0.903409C284.69 0.956439 284.87 1.00568 284.987 1.05114L284.589 2.42614C284.51 2.40341 284.408 2.37689 284.283 2.34659C284.158 2.3125 284.006 2.29545 283.828 2.29545C283.415 2.29545 283.12 2.39773 282.942 2.60227C282.768 2.80682 282.68 3.10227 282.68 3.48864V13H280.982ZM289.732 13.1761C288.872 13.1761 288.131 12.9924 287.51 12.625C286.893 12.2538 286.415 11.733 286.078 11.0625C285.745 10.3883 285.578 9.59848 285.578 8.69318C285.578 7.79924 285.745 7.01136 286.078 6.32955C286.415 5.64773 286.885 5.11553 287.487 4.73295C288.093 4.35038 288.802 4.15909 289.612 4.15909C290.105 4.15909 290.582 4.24053 291.044 4.40341C291.506 4.56629 291.921 4.82197 292.288 5.17045C292.656 5.51894 292.946 5.97159 293.158 6.52841C293.37 7.08144 293.476 7.75379 293.476 8.54545V9.14773H286.538V7.875H291.811C291.811 7.42803 291.72 7.0322 291.538 6.6875C291.357 6.33902 291.101 6.06439 290.771 5.86364C290.446 5.66288 290.063 5.5625 289.624 5.5625C289.146 5.5625 288.73 5.67992 288.374 5.91477C288.021 6.14583 287.749 6.44886 287.555 6.82386C287.366 7.19508 287.271 7.59848 287.271 8.03409V9.02841C287.271 9.61174 287.374 10.108 287.578 10.517C287.786 10.9261 288.076 11.2386 288.447 11.4545C288.819 11.6667 289.252 11.7727 289.749 11.7727C290.071 11.7727 290.364 11.7273 290.629 11.6364C290.894 11.5417 291.124 11.4015 291.317 11.2159C291.51 11.0303 291.658 10.8011 291.76 10.5284L293.368 10.8182C293.239 11.2917 293.008 11.7064 292.675 12.0625C292.345 12.4148 291.93 12.6894 291.43 12.8864C290.934 13.0795 290.368 13.1761 289.732 13.1761ZM295.361 13V4.27273H297.003V5.65909H297.094C297.253 5.18939 297.533 4.82008 297.935 4.55114C298.34 4.27841 298.798 4.14205 299.31 4.14205C299.416 4.14205 299.541 4.14583 299.685 4.15341C299.832 4.16098 299.948 4.17045 300.031 4.18182V5.80682C299.963 5.78788 299.842 5.76705 299.668 5.74432C299.493 5.7178 299.319 5.70455 299.145 5.70455C298.743 5.70455 298.385 5.78977 298.071 5.96023C297.76 6.12689 297.514 6.35985 297.332 6.65909C297.151 6.95455 297.06 7.29167 297.06 7.67045V13H295.361ZM308.041 6.40341L306.501 6.67614C306.437 6.47917 306.335 6.29167 306.195 6.11364C306.058 5.93561 305.873 5.78977 305.638 5.67614C305.403 5.5625 305.109 5.50568 304.757 5.50568C304.276 5.50568 303.875 5.61364 303.553 5.82955C303.231 6.04167 303.07 6.31629 303.07 6.65341C303.07 6.94508 303.178 7.17992 303.393 7.35795C303.609 7.53598 303.958 7.68182 304.439 7.79545L305.825 8.11364C306.628 8.29924 307.227 8.58523 307.621 8.97159C308.015 9.35795 308.212 9.85985 308.212 10.4773C308.212 11 308.06 11.4659 307.757 11.875C307.458 12.2803 307.039 12.5985 306.501 12.8295C305.967 13.0606 305.348 13.1761 304.643 13.1761C303.666 13.1761 302.869 12.9678 302.251 12.5511C301.634 12.1307 301.255 11.5341 301.115 10.7614L302.757 10.5114C302.859 10.9394 303.07 11.2633 303.388 11.483C303.706 11.6989 304.121 11.8068 304.632 11.8068C305.189 11.8068 305.634 11.6913 305.967 11.4602C306.301 11.2254 306.467 10.9394 306.467 10.6023C306.467 10.3295 306.365 10.1004 306.161 9.91477C305.96 9.72917 305.651 9.58902 305.234 9.49432L303.757 9.17045C302.943 8.98485 302.34 8.68939 301.95 8.28409C301.564 7.87879 301.371 7.36553 301.371 6.74432C301.371 6.22917 301.515 5.77841 301.803 5.39205C302.09 5.00568 302.488 4.70455 302.996 4.48864C303.503 4.26894 304.085 4.15909 304.74 4.15909C305.683 4.15909 306.426 4.36364 306.967 4.77273C307.509 5.17803 307.867 5.72159 308.041 6.40341ZM318.467 4.27273V5.63636H313.536V4.27273H318.467ZM314.888 13V3.26136C314.888 2.71591 315.007 2.26326 315.246 1.90341C315.484 1.53977 315.801 1.26894 316.195 1.09091C316.589 0.90909 317.017 0.818181 317.479 0.818181C317.82 0.818181 318.111 0.84659 318.354 0.903409C318.596 0.956439 318.776 1.00568 318.893 1.05114L318.496 2.42614C318.416 2.40341 318.314 2.37689 318.189 2.34659C318.064 2.3125 317.912 2.29545 317.734 2.29545C317.321 2.29545 317.026 2.39773 316.848 2.60227C316.674 2.80682 316.587 3.10227 316.587 3.48864V13H314.888ZM320.22 13V4.27273H321.862V5.65909H321.953C322.112 5.18939 322.393 4.82008 322.794 4.55114C323.199 4.27841 323.658 4.14205 324.169 4.14205C324.275 4.14205 324.4 4.14583 324.544 4.15341C324.692 4.16098 324.807 4.17045 324.891 4.18182V5.80682C324.822 5.78788 324.701 5.76705 324.527 5.74432C324.353 5.7178 324.179 5.70455 324.004 5.70455C323.603 5.70455 323.245 5.78977 322.93 5.96023C322.62 6.12689 322.374 6.35985 322.192 6.65909C322.01 6.95455 321.919 7.29167 321.919 7.67045V13H320.22ZM329.724 13.1761C328.906 13.1761 328.192 12.9886 327.582 12.6136C326.973 12.2386 326.499 11.714 326.162 11.0398C325.825 10.3655 325.656 9.57765 325.656 8.67614C325.656 7.77083 325.825 6.97917 326.162 6.30114C326.499 5.62311 326.973 5.09659 327.582 4.72159C328.192 4.34659 328.906 4.15909 329.724 4.15909C330.543 4.15909 331.257 4.34659 331.866 4.72159C332.476 5.09659 332.95 5.62311 333.287 6.30114C333.624 6.97917 333.793 7.77083 333.793 8.67614C333.793 9.57765 333.624 10.3655 333.287 11.0398C332.95 11.714 332.476 12.2386 331.866 12.6136C331.257 12.9886 330.543 13.1761 329.724 13.1761ZM329.73 11.75C330.26 11.75 330.7 11.6098 331.048 11.3295C331.397 11.0492 331.654 10.6761 331.821 10.2102C331.991 9.74432 332.077 9.23106 332.077 8.67045C332.077 8.11364 331.991 7.60227 331.821 7.13636C331.654 6.66667 331.397 6.28977 331.048 6.00568C330.7 5.72159 330.26 5.57955 329.73 5.57955C329.196 5.57955 328.753 5.72159 328.401 6.00568C328.052 6.28977 327.793 6.66667 327.622 7.13636C327.455 7.60227 327.372 8.11364 327.372 8.67045C327.372 9.23106 327.455 9.74432 327.622 10.2102C327.793 10.6761 328.052 11.0492 328.401 11.3295C328.753 11.6098 329.196 11.75 329.73 11.75ZM335.689 13V4.27273H337.32V5.69318H337.428C337.609 5.21212 337.907 4.83712 338.32 4.56818C338.732 4.29545 339.227 4.15909 339.803 4.15909C340.386 4.15909 340.875 4.29545 341.268 4.56818C341.666 4.84091 341.96 5.21591 342.149 5.69318H342.24C342.448 5.22727 342.78 4.85606 343.234 4.57955C343.689 4.29924 344.231 4.15909 344.859 4.15909C345.651 4.15909 346.297 4.4072 346.797 4.90341C347.301 5.39962 347.553 6.14773 347.553 7.14773V13H345.854V7.30682C345.854 6.71591 345.693 6.28788 345.371 6.02273C345.049 5.75758 344.664 5.625 344.217 5.625C343.664 5.625 343.234 5.79545 342.928 6.13636C342.621 6.47348 342.467 6.9072 342.467 7.4375V13H340.774V7.19886C340.774 6.72538 340.626 6.3447 340.331 6.05682C340.036 5.76894 339.651 5.625 339.178 5.625C338.856 5.625 338.558 5.71023 338.286 5.88068C338.017 6.04735 337.799 6.2803 337.632 6.57955C337.469 6.87879 337.388 7.22538 337.388 7.61932V13H335.689ZM1.05469 42.1797V30.7031H2.33594V31.7812C2.63802 31.3594 2.97917 31.0443 3.35938 30.8359C3.73958 30.6224 4.20052 30.5156 4.74219 30.5156C5.45052 30.5156 6.07552 30.6979 6.61719 31.0625C7.15885 31.4271 7.56771 31.9427 7.84375 32.6094C8.11979 33.2708 8.25781 33.9974 8.25781 34.7891C8.25781 35.638 8.10417 36.4036 7.79688 37.0859C7.49479 37.763 7.05208 38.2839 6.46875 38.6484C5.89062 39.0078 5.28125 39.1875 4.64062 39.1875C4.17188 39.1875 3.75 39.0885 3.375 38.8906C3.00521 38.6927 2.70052 38.4427 2.46094 38.1406V42.1797H1.05469ZM2.32812 34.8984C2.32812 35.9661 2.54427 36.7552 2.97656 37.2656C3.40885 37.776 3.93229 38.0312 4.54688 38.0312C5.17188 38.0312 5.70573 37.7682 6.14844 37.2422C6.59635 36.7109 6.82031 35.8906 6.82031 34.7812C6.82031 33.724 6.60156 32.9323 6.16406 32.4062C5.73177 31.8802 5.21354 31.6172 4.60938 31.6172C4.01042 31.6172 3.47917 31.8984 3.01562 32.4609C2.55729 33.0182 2.32812 33.8307 2.32812 34.8984ZM9.94531 39V30.7031H11.2109V31.9609C11.5339 31.3724 11.8307 30.9844 12.1016 30.7969C12.3776 30.6094 12.6797 30.5156 13.0078 30.5156C13.4818 30.5156 13.9635 30.6667 14.4531 30.9688L13.9688 32.2734C13.625 32.0703 13.2812 31.9688 12.9375 31.9688C12.6302 31.9688 12.3542 32.0625 12.1094 32.25C11.8646 32.4323 11.6901 32.6875 11.5859 33.0156C11.4297 33.5156 11.3516 34.0625 11.3516 34.6562V39H9.94531ZM20.9688 36.3281L22.4219 36.5078C22.1927 37.3568 21.7682 38.0156 21.1484 38.4844C20.5286 38.9531 19.737 39.1875 18.7734 39.1875C17.5599 39.1875 16.5964 38.8151 15.8828 38.0703C15.1745 37.3203 14.8203 36.2708 14.8203 34.9219C14.8203 33.526 15.1797 32.4427 15.8984 31.6719C16.6172 30.901 17.5495 30.5156 18.6953 30.5156C19.8047 30.5156 20.7109 30.8932 21.4141 31.6484C22.1172 32.4036 22.4688 33.4661 22.4688 34.8359C22.4688 34.9193 22.4661 35.0443 22.4609 35.2109H16.2734C16.3255 36.1224 16.5833 36.8203 17.0469 37.3047C17.5104 37.7891 18.0885 38.0312 18.7812 38.0312C19.2969 38.0312 19.737 37.8958 20.1016 37.625C20.4661 37.3542 20.7552 36.9219 20.9688 36.3281ZM16.3516 34.0547H20.9844C20.9219 33.3568 20.7448 32.8333 20.4531 32.4844C20.0052 31.9427 19.4245 31.6719 18.7109 31.6719C18.0651 31.6719 17.5208 31.888 17.0781 32.3203C16.6406 32.7526 16.3984 33.3307 16.3516 34.0547ZM26.5 39L23.3438 30.7031H24.8281L26.6094 35.6719C26.8021 36.2083 26.9792 36.7656 27.1406 37.3438C27.2656 36.9062 27.4401 36.3802 27.6641 35.7656L29.5078 30.7031H30.9531L27.8125 39H26.5ZM32.2031 29.1641V27.5469H33.6094V29.1641H32.2031ZM32.2031 39V30.7031H33.6094V39H32.2031ZM35.2344 34.8516C35.2344 33.3151 35.6615 32.1771 36.5156 31.4375C37.2292 30.8229 38.099 30.5156 39.125 30.5156C40.2656 30.5156 41.1979 30.8906 41.9219 31.6406C42.6458 32.3854 43.0078 33.4167 43.0078 34.7344C43.0078 35.8021 42.8464 36.6432 42.5234 37.2578C42.2057 37.8672 41.7396 38.3411 41.125 38.6797C40.5156 39.0182 39.849 39.1875 39.125 39.1875C37.9635 39.1875 37.0234 38.8151 36.3047 38.0703C35.5911 37.3255 35.2344 36.2526 35.2344 34.8516ZM36.6797 34.8516C36.6797 35.9141 36.9115 36.7109 37.375 37.2422C37.8385 37.7682 38.4219 38.0312 39.125 38.0312C39.8229 38.0312 40.4036 37.7656 40.8672 37.2344C41.3307 36.7031 41.5625 35.8932 41.5625 34.8047C41.5625 33.7786 41.3281 33.0026 40.8594 32.4766C40.3958 31.9453 39.8177 31.6797 39.125 31.6797C38.4219 31.6797 37.8385 31.9427 37.375 32.4688C36.9115 32.9948 36.6797 33.7891 36.6797 34.8516ZM50.1016 39V37.7812C49.4557 38.7188 48.5781 39.1875 47.4688 39.1875C46.9792 39.1875 46.5208 39.0938 46.0938 38.9062C45.6719 38.7188 45.3568 38.4844 45.1484 38.2031C44.9453 37.9167 44.8021 37.5677 44.7188 37.1562C44.6615 36.8802 44.6328 36.4427 44.6328 35.8438V30.7031H46.0391V35.3047C46.0391 36.0391 46.0677 36.5339 46.125 36.7891C46.2135 37.1589 46.401 37.4505 46.6875 37.6641C46.974 37.8724 47.3281 37.9766 47.75 37.9766C48.1719 37.9766 48.5677 37.8698 48.9375 37.6562C49.3073 37.4375 49.5677 37.1432 49.7188 36.7734C49.875 36.3984 49.9531 35.8568 49.9531 35.1484V30.7031H51.3594V39H50.1016ZM53.0078 36.5234L54.3984 36.3047C54.4766 36.862 54.6927 37.2891 55.0469 37.5859C55.4062 37.8828 55.9062 38.0312 56.5469 38.0312C57.1927 38.0312 57.6719 37.901 57.9844 37.6406C58.2969 37.375 58.4531 37.0651 58.4531 36.7109C58.4531 36.3932 58.3151 36.1432 58.0391 35.9609C57.8464 35.8359 57.3672 35.6771 56.6016 35.4844C55.5703 35.224 54.8542 35 54.4531 34.8125C54.0573 34.6198 53.7552 34.3568 53.5469 34.0234C53.3438 33.6849 53.2422 33.3125 53.2422 32.9062C53.2422 32.5365 53.3255 32.1953 53.4922 31.8828C53.6641 31.5651 53.8958 31.3021 54.1875 31.0938C54.4062 30.9323 54.7031 30.7969 55.0781 30.6875C55.4583 30.5729 55.8646 30.5156 56.2969 30.5156C56.9479 30.5156 57.5182 30.6094 58.0078 30.7969C58.5026 30.9844 58.8672 31.2396 59.1016 31.5625C59.3359 31.8802 59.4974 32.3073 59.5859 32.8438L58.2109 33.0312C58.1484 32.6042 57.9661 32.2708 57.6641 32.0312C57.3672 31.7917 56.9453 31.6719 56.3984 31.6719C55.7526 31.6719 55.2917 31.7786 55.0156 31.9922C54.7396 32.2057 54.6016 32.4557 54.6016 32.7422C54.6016 32.9245 54.6589 33.0885 54.7734 33.2344C54.888 33.3854 55.0677 33.5104 55.3125 33.6094C55.4531 33.6615 55.8672 33.7812 56.5547 33.9688C57.5495 34.2344 58.2422 34.4531 58.6328 34.625C59.0286 34.7917 59.3385 35.0365 59.5625 35.3594C59.7865 35.6823 59.8984 36.0833 59.8984 36.5625C59.8984 37.0312 59.7604 37.474 59.4844 37.8906C59.2135 38.3021 58.8203 38.6224 58.3047 38.8516C57.7891 39.0755 57.2057 39.1875 56.5547 39.1875C55.4766 39.1875 54.6536 38.9635 54.0859 38.5156C53.5234 38.0677 53.1641 37.4036 53.0078 36.5234ZM65.5 34.8516C65.5 33.3151 65.9271 32.1771 66.7812 31.4375C67.4948 30.8229 68.3646 30.5156 69.3906 30.5156C70.5312 30.5156 71.4635 30.8906 72.1875 31.6406C72.9115 32.3854 73.2734 33.4167 73.2734 34.7344C73.2734 35.8021 73.112 36.6432 72.7891 37.2578C72.4714 37.8672 72.0052 38.3411 71.3906 38.6797C70.7812 39.0182 70.1146 39.1875 69.3906 39.1875C68.2292 39.1875 67.2891 38.8151 66.5703 38.0703C65.8568 37.3255 65.5 36.2526 65.5 34.8516ZM66.9453 34.8516C66.9453 35.9141 67.1771 36.7109 67.6406 37.2422C68.1042 37.7682 68.6875 38.0312 69.3906 38.0312C70.0885 38.0312 70.6693 37.7656 71.1328 37.2344C71.5964 36.7031 71.8281 35.8932 71.8281 34.8047C71.8281 33.7786 71.5938 33.0026 71.125 32.4766C70.6615 31.9453 70.0833 31.6797 69.3906 31.6797C68.6875 31.6797 68.1042 31.9427 67.6406 32.4688C67.1771 32.9948 66.9453 33.7891 66.9453 34.8516ZM74.9297 39V30.7031H76.1953V31.8828C76.8047 30.9714 77.6849 30.5156 78.8359 30.5156C79.3359 30.5156 79.7943 30.6068 80.2109 30.7891C80.6328 30.9661 80.9479 31.2005 81.1562 31.4922C81.3646 31.7839 81.5104 32.1302 81.5938 32.5312C81.6458 32.7917 81.6719 33.2474 81.6719 33.8984V39H80.2656V33.9531C80.2656 33.3802 80.2109 32.9531 80.1016 32.6719C79.9922 32.3854 79.7969 32.1589 79.5156 31.9922C79.2396 31.8203 78.9141 31.7344 78.5391 31.7344C77.9401 31.7344 77.4219 31.9245 76.9844 32.3047C76.5521 32.6849 76.3359 33.4062 76.3359 34.4688V39H74.9297ZM89.5156 36.3281L90.9688 36.5078C90.7396 37.3568 90.3151 38.0156 89.6953 38.4844C89.0755 38.9531 88.2839 39.1875 87.3203 39.1875C86.1068 39.1875 85.1432 38.8151 84.4297 38.0703C83.7214 37.3203 83.3672 36.2708 83.3672 34.9219C83.3672 33.526 83.7266 32.4427 84.4453 31.6719C85.1641 30.901 86.0964 30.5156 87.2422 30.5156C88.3516 30.5156 89.2578 30.8932 89.9609 31.6484C90.6641 32.4036 91.0156 33.4661 91.0156 34.8359C91.0156 34.9193 91.013 35.0443 91.0078 35.2109H84.8203C84.8724 36.1224 85.1302 36.8203 85.5938 37.3047C86.0573 37.7891 86.6354 38.0312 87.3281 38.0312C87.8438 38.0312 88.2839 37.8958 88.6484 37.625C89.013 37.3542 89.3021 36.9219 89.5156 36.3281ZM84.8984 34.0547H89.5312C89.4688 33.3568 89.2917 32.8333 89 32.4844C88.5521 31.9427 87.9714 31.6719 87.2578 31.6719C86.612 31.6719 86.0677 31.888 85.625 32.3203C85.1875 32.7526 84.9453 33.3307 84.8984 34.0547ZM92.1797 36.5234L93.5703 36.3047C93.6484 36.862 93.8646 37.2891 94.2188 37.5859C94.5781 37.8828 95.0781 38.0312 95.7188 38.0312C96.3646 38.0312 96.8438 37.901 97.1562 37.6406C97.4688 37.375 97.625 37.0651 97.625 36.7109C97.625 36.3932 97.487 36.1432 97.2109 35.9609C97.0182 35.8359 96.5391 35.6771 95.7734 35.4844C94.7422 35.224 94.026 35 93.625 34.8125C93.2292 34.6198 92.9271 34.3568 92.7188 34.0234C92.5156 33.6849 92.4141 33.3125 92.4141 32.9062C92.4141 32.5365 92.4974 32.1953 92.6641 31.8828C92.8359 31.5651 93.0677 31.3021 93.3594 31.0938C93.5781 30.9323 93.875 30.7969 94.25 30.6875C94.6302 30.5729 95.0365 30.5156 95.4688 30.5156C96.1198 30.5156 96.6901 30.6094 97.1797 30.7969C97.6745 30.9844 98.0391 31.2396 98.2734 31.5625C98.5078 31.8802 98.6693 32.3073 98.7578 32.8438L97.3828 33.0312C97.3203 32.6042 97.138 32.2708 96.8359 32.0312C96.5391 31.7917 96.1172 31.6719 95.5703 31.6719C94.9245 31.6719 94.4635 31.7786 94.1875 31.9922C93.9115 32.2057 93.7734 32.4557 93.7734 32.7422C93.7734 32.9245 93.8307 33.0885 93.9453 33.2344C94.0599 33.3854 94.2396 33.5104 94.4844 33.6094C94.625 33.6615 95.0391 33.7812 95.7266 33.9688C96.7214 34.2344 97.4141 34.4531 97.8047 34.625C98.2005 34.7917 98.5104 35.0365 98.7344 35.3594C98.9583 35.6823 99.0703 36.0833 99.0703 36.5625C99.0703 37.0312 98.9323 37.474 98.6562 37.8906C98.3854 38.3021 97.9922 38.6224 97.4766 38.8516C96.9609 39.0755 96.3776 39.1875 95.7266 39.1875C94.6484 39.1875 93.8255 38.9635 93.2578 38.5156C92.6953 38.0677 92.3359 37.4036 92.1797 36.5234ZM105.531 39V31.7969H104.289V30.7031H105.531V29.8203C105.531 29.263 105.581 28.849 105.68 28.5781C105.815 28.2135 106.052 27.9193 106.391 27.6953C106.734 27.4661 107.214 27.3516 107.828 27.3516C108.224 27.3516 108.661 27.3984 109.141 27.4922L108.93 28.7188C108.638 28.6667 108.362 28.6406 108.102 28.6406C107.674 28.6406 107.372 28.7318 107.195 28.9141C107.018 29.0964 106.93 29.4375 106.93 29.9375V30.7031H108.547V31.7969H106.93V39H105.531ZM109.125 34.8516C109.125 33.3151 109.552 32.1771 110.406 31.4375C111.12 30.8229 111.99 30.5156 113.016 30.5156C114.156 30.5156 115.089 30.8906 115.812 31.6406C116.536 32.3854 116.898 33.4167 116.898 34.7344C116.898 35.8021 116.737 36.6432 116.414 37.2578C116.096 37.8672 115.63 38.3411 115.016 38.6797C114.406 39.0182 113.74 39.1875 113.016 39.1875C111.854 39.1875 110.914 38.8151 110.195 38.0703C109.482 37.3255 109.125 36.2526 109.125 34.8516ZM110.57 34.8516C110.57 35.9141 110.802 36.7109 111.266 37.2422C111.729 37.7682 112.312 38.0312 113.016 38.0312C113.714 38.0312 114.294 37.7656 114.758 37.2344C115.221 36.7031 115.453 35.8932 115.453 34.8047C115.453 33.7786 115.219 33.0026 114.75 32.4766C114.286 31.9453 113.708 31.6797 113.016 31.6797C112.312 31.6797 111.729 31.9427 111.266 32.4688C110.802 32.9948 110.57 33.7891 110.57 34.8516ZM118.539 39V30.7031H119.805V31.9609C120.128 31.3724 120.424 30.9844 120.695 30.7969C120.971 30.6094 121.273 30.5156 121.602 30.5156C122.076 30.5156 122.557 30.6667 123.047 30.9688L122.562 32.2734C122.219 32.0703 121.875 31.9688 121.531 31.9688C121.224 31.9688 120.948 32.0625 120.703 32.25C120.458 32.4323 120.284 32.6875 120.18 33.0156C120.023 33.5156 119.945 34.0625 119.945 34.6562V39H118.539ZM127.773 36.5234L129.164 36.3047C129.242 36.862 129.458 37.2891 129.812 37.5859C130.172 37.8828 130.672 38.0312 131.312 38.0312C131.958 38.0312 132.438 37.901 132.75 37.6406C133.062 37.375 133.219 37.0651 133.219 36.7109C133.219 36.3932 133.081 36.1432 132.805 35.9609C132.612 35.8359 132.133 35.6771 131.367 35.4844C130.336 35.224 129.62 35 129.219 34.8125C128.823 34.6198 128.521 34.3568 128.312 34.0234C128.109 33.6849 128.008 33.3125 128.008 32.9062C128.008 32.5365 128.091 32.1953 128.258 31.8828C128.43 31.5651 128.661 31.3021 128.953 31.0938C129.172 30.9323 129.469 30.7969 129.844 30.6875C130.224 30.5729 130.63 30.5156 131.062 30.5156C131.714 30.5156 132.284 30.6094 132.773 30.7969C133.268 30.9844 133.633 31.2396 133.867 31.5625C134.102 31.8802 134.263 32.3073 134.352 32.8438L132.977 33.0312C132.914 32.6042 132.732 32.2708 132.43 32.0312C132.133 31.7917 131.711 31.6719 131.164 31.6719C130.518 31.6719 130.057 31.7786 129.781 31.9922C129.505 32.2057 129.367 32.4557 129.367 32.7422C129.367 32.9245 129.424 33.0885 129.539 33.2344C129.654 33.3854 129.833 33.5104 130.078 33.6094C130.219 33.6615 130.633 33.7812 131.32 33.9688C132.315 34.2344 133.008 34.4531 133.398 34.625C133.794 34.7917 134.104 35.0365 134.328 35.3594C134.552 35.6823 134.664 36.0833 134.664 36.5625C134.664 37.0312 134.526 37.474 134.25 37.8906C133.979 38.3021 133.586 38.6224 133.07 38.8516C132.555 39.0755 131.971 39.1875 131.32 39.1875C130.242 39.1875 129.419 38.9635 128.852 38.5156C128.289 38.0677 127.93 37.4036 127.773 36.5234ZM142.016 36.3281L143.469 36.5078C143.24 37.3568 142.815 38.0156 142.195 38.4844C141.576 38.9531 140.784 39.1875 139.82 39.1875C138.607 39.1875 137.643 38.8151 136.93 38.0703C136.221 37.3203 135.867 36.2708 135.867 34.9219C135.867 33.526 136.227 32.4427 136.945 31.6719C137.664 30.901 138.596 30.5156 139.742 30.5156C140.852 30.5156 141.758 30.8932 142.461 31.6484C143.164 32.4036 143.516 33.4661 143.516 34.8359C143.516 34.9193 143.513 35.0443 143.508 35.2109H137.32C137.372 36.1224 137.63 36.8203 138.094 37.3047C138.557 37.7891 139.135 38.0312 139.828 38.0312C140.344 38.0312 140.784 37.8958 141.148 37.625C141.513 37.3542 141.802 36.9219 142.016 36.3281ZM137.398 34.0547H142.031C141.969 33.3568 141.792 32.8333 141.5 32.4844C141.052 31.9427 140.471 31.6719 139.758 31.6719C139.112 31.6719 138.568 31.888 138.125 32.3203C137.688 32.7526 137.445 33.3307 137.398 34.0547ZM150.656 35.9609L152.039 36.1406C151.888 37.0938 151.5 37.8411 150.875 38.3828C150.255 38.9193 149.492 39.1875 148.586 39.1875C147.451 39.1875 146.536 38.8177 145.844 38.0781C145.156 37.3333 144.812 36.2682 144.812 34.8828C144.812 33.987 144.961 33.2031 145.258 32.5312C145.555 31.8594 146.005 31.3568 146.609 31.0234C147.219 30.6849 147.88 30.5156 148.594 30.5156C149.495 30.5156 150.232 30.7448 150.805 31.2031C151.378 31.6562 151.745 32.3021 151.906 33.1406L150.539 33.3516C150.409 32.7943 150.177 32.375 149.844 32.0938C149.516 31.8125 149.117 31.6719 148.648 31.6719C147.94 31.6719 147.365 31.9271 146.922 32.4375C146.479 32.9427 146.258 33.7448 146.258 34.8438C146.258 35.9583 146.471 36.7682 146.898 37.2734C147.326 37.7786 147.883 38.0312 148.57 38.0312C149.122 38.0312 149.583 37.862 149.953 37.5234C150.323 37.1849 150.557 36.6641 150.656 35.9609ZM158.68 39V37.7812C158.034 38.7188 157.156 39.1875 156.047 39.1875C155.557 39.1875 155.099 39.0938 154.672 38.9062C154.25 38.7188 153.935 38.4844 153.727 38.2031C153.523 37.9167 153.38 37.5677 153.297 37.1562C153.24 36.8802 153.211 36.4427 153.211 35.8438V30.7031H154.617V35.3047C154.617 36.0391 154.646 36.5339 154.703 36.7891C154.792 37.1589 154.979 37.4505 155.266 37.6641C155.552 37.8724 155.906 37.9766 156.328 37.9766C156.75 37.9766 157.146 37.8698 157.516 37.6562C157.885 37.4375 158.146 37.1432 158.297 36.7734C158.453 36.3984 158.531 35.8568 158.531 35.1484V30.7031H159.938V39H158.68ZM162.133 39V30.7031H163.398V31.9609C163.721 31.3724 164.018 30.9844 164.289 30.7969C164.565 30.6094 164.867 30.5156 165.195 30.5156C165.669 30.5156 166.151 30.6667 166.641 30.9688L166.156 32.2734C165.812 32.0703 165.469 31.9688 165.125 31.9688C164.818 31.9688 164.542 32.0625 164.297 32.25C164.052 32.4323 163.878 32.6875 163.773 33.0156C163.617 33.5156 163.539 34.0625 163.539 34.6562V39H162.133ZM167.484 29.1641V27.5469H168.891V29.1641H167.484ZM167.484 39V30.7031H168.891V39H167.484ZM174.109 37.7422L174.312 38.9844C173.917 39.0677 173.562 39.1094 173.25 39.1094C172.74 39.1094 172.344 39.0286 172.062 38.8672C171.781 38.7057 171.583 38.4948 171.469 38.2344C171.354 37.9688 171.297 37.4141 171.297 36.5703V31.7969H170.266V30.7031H171.297V28.6484L172.695 27.8047V30.7031H174.109V31.7969H172.695V36.6484C172.695 37.0495 172.719 37.3073 172.766 37.4219C172.818 37.5365 172.898 37.6276 173.008 37.6953C173.122 37.763 173.284 37.7969 173.492 37.7969C173.648 37.7969 173.854 37.7786 174.109 37.7422ZM175.43 42.1953L175.273 40.875C175.581 40.9583 175.849 41 176.078 41C176.391 41 176.641 40.9479 176.828 40.8438C177.016 40.7396 177.169 40.5938 177.289 40.4062C177.378 40.2656 177.521 39.9167 177.719 39.3594C177.745 39.2812 177.786 39.1667 177.844 39.0156L174.695 30.7031H176.211L177.938 35.5078C178.161 36.1172 178.362 36.7578 178.539 37.4297C178.701 36.7839 178.893 36.1536 179.117 35.5391L180.891 30.7031H182.297L179.141 39.1406C178.802 40.0521 178.539 40.6797 178.352 41.0234C178.102 41.487 177.815 41.8255 177.492 42.0391C177.169 42.2578 176.784 42.3672 176.336 42.3672C176.065 42.3672 175.763 42.3099 175.43 42.1953Z" fill="black" fill-opacity="0.6"/>
</svg>
