<svg width="20" height="20" viewBox="0 0 20 20" fill="none" xmlns="http://www.w3.org/2000/svg">
<path fill-rule="evenodd" clip-rule="evenodd" d="M4.7772 1.66096C5.79136 0.652625 7.46136 0.831792 8.31053 1.96679L9.3622 3.37013C10.0539 4.29346 9.9922 5.58346 9.17136 6.39929L8.97303 6.59763C8.95054 6.68088 8.94826 6.76831 8.96636 6.85263C9.01886 7.19263 9.30303 7.91263 10.493 9.09596C11.683 10.2793 12.408 10.5626 12.753 10.616C12.84 10.6334 12.9297 10.6309 13.0155 10.6085L13.3555 10.2701C14.0855 9.54513 15.2055 9.40929 16.1089 9.90013L17.7005 10.7668C19.0647 11.5068 19.4089 13.3601 18.2922 14.471L17.108 15.6476C16.7347 16.0185 16.233 16.3276 15.6214 16.3851C14.113 16.526 10.5989 16.346 6.9047 12.6735C3.4572 9.24513 2.79553 6.25513 2.71136 4.78179C2.6697 4.03679 3.02136 3.40679 3.4697 2.96179L4.7772 1.66096ZM7.31053 2.71596C6.88803 2.15179 6.10136 2.10679 5.65803 2.54763L4.3497 3.84763C4.0747 4.12096 3.94303 4.42263 3.9597 4.71096C4.02636 5.88179 4.5597 8.57929 7.78636 11.7876C11.1714 15.1526 14.2972 15.2535 15.5055 15.1401C15.7522 15.1176 15.9972 14.9893 16.2264 14.7618L17.4097 13.5843C17.8914 13.106 17.7855 12.2343 17.1039 11.8643L15.5122 10.9985C15.0722 10.7601 14.5572 10.8385 14.2372 11.1568L13.858 11.5343L13.4164 11.091C13.858 11.5343 13.8572 11.5351 13.8564 11.5351L13.8555 11.5368L13.853 11.5393L13.8472 11.5443L13.8347 11.556C13.7995 11.5886 13.7616 11.6182 13.7214 11.6443C13.6547 11.6885 13.5664 11.7376 13.4555 11.7785C13.2305 11.8626 12.9322 11.9076 12.5639 11.851C11.8414 11.7401 10.8839 11.2476 9.61136 9.98263C8.3397 8.71763 7.84303 7.76596 7.73136 7.04429C7.67386 6.67596 7.7197 6.37763 7.8047 6.15263C7.85148 6.02602 7.91846 5.90782 8.00303 5.80263L8.0297 5.77346L8.04136 5.76096L8.04636 5.75596L8.04886 5.75346L8.05053 5.75179L8.29053 5.51346C8.6472 5.15763 8.6972 4.56846 8.36136 4.11929L7.31053 2.71596Z" fill="#121212"/>
</svg>
