<svg width="20" height="20" viewBox="0 0 20 20" fill="none" xmlns="http://www.w3.org/2000/svg">
<path d="M10 3.83331C11.5647 3.83331 12.8338 5.10166 12.834 6.66632C12.834 8.23113 11.5648 9.50031 10 9.50031C8.43534 9.50013 7.16699 8.23102 7.16699 6.66632C7.16717 5.10177 8.43545 3.83349 10 3.83331Z" stroke="#121212" stroke-linecap="round"/>
<path d="M3.89557 14.7476C4.35607 12.3614 6.8314 11.25 9.26167 11.25H10.7383C13.1686 11.25 15.6439 12.3614 16.1044 14.7476C16.1361 14.9116 16.1634 15.08 16.1856 15.2523C16.256 15.8001 15.8023 16.25 15.25 16.25H4.75C4.19771 16.25 3.74395 15.8001 3.81441 15.2523C3.83657 15.08 3.86392 14.9116 3.89557 14.7476Z" stroke="#121212" stroke-linecap="round"/>
</svg>
