<svg width="111" height="13" viewBox="0 0 111 13" fill="none" xmlns="http://www.w3.org/2000/svg">
<path d="M2.78906 12L0.0546875 0.546875H2.42188L4.14844 8.41406L6.24219 0.546875H8.99219L11 8.54688L12.7578 0.546875H15.0859L12.3047 12H9.85156L7.57031 3.4375L5.29688 12H2.78906ZM20.7656 9.35938L22.9531 9.72656C22.6719 10.5286 22.2266 11.1406 21.6172 11.5625C21.013 11.9792 20.2552 12.1875 19.3438 12.1875C17.901 12.1875 16.8333 11.7161 16.1406 10.7734C15.5938 10.0182 15.3203 9.0651 15.3203 7.91406C15.3203 6.53906 15.6797 5.46354 16.3984 4.6875C17.1172 3.90625 18.026 3.51562 19.125 3.51562C20.3594 3.51562 21.3333 3.92448 22.0469 4.74219C22.7604 5.55469 23.1016 6.80208 23.0703 8.48438H17.5703C17.5859 9.13542 17.763 9.64323 18.1016 10.0078C18.4401 10.3672 18.862 10.5469 19.3672 10.5469C19.7109 10.5469 20 10.4531 20.2344 10.2656C20.4688 10.0781 20.6458 9.77604 20.7656 9.35938ZM20.8906 7.14062C20.875 6.50521 20.7109 6.02344 20.3984 5.69531C20.0859 5.36198 19.7057 5.19531 19.2578 5.19531C18.7786 5.19531 18.3828 5.36979 18.0703 5.71875C17.7578 6.06771 17.6042 6.54167 17.6094 7.14062H20.8906ZM24.8672 12V0.546875H27.0625V12H24.8672ZM36.5547 6.15625L34.3906 6.54688C34.3177 6.11458 34.151 5.78906 33.8906 5.57031C33.6354 5.35156 33.3021 5.24219 32.8906 5.24219C32.3438 5.24219 31.9062 5.43229 31.5781 5.8125C31.2552 6.1875 31.0938 6.81771 31.0938 7.70312C31.0938 8.6875 31.2578 9.38281 31.5859 9.78906C31.9193 10.1953 32.3646 10.3984 32.9219 10.3984C33.3385 10.3984 33.6797 10.2812 33.9453 10.0469C34.2109 9.80729 34.3984 9.39844 34.5078 8.82031L36.6641 9.1875C36.4401 10.1771 36.0104 10.9245 35.375 11.4297C34.7396 11.9349 33.888 12.1875 32.8203 12.1875C31.6068 12.1875 30.638 11.8047 29.9141 11.0391C29.1953 10.2734 28.8359 9.21354 28.8359 7.85938C28.8359 6.48958 29.1979 5.42448 29.9219 4.66406C30.6458 3.89844 31.625 3.51562 32.8594 3.51562C33.8698 3.51562 34.6719 3.73438 35.2656 4.17188C35.8646 4.60417 36.2943 5.26562 36.5547 6.15625ZM37.7188 7.73438C37.7188 7.00521 37.8984 6.29948 38.2578 5.61719C38.6172 4.9349 39.125 4.41406 39.7812 4.05469C40.4427 3.69531 41.1797 3.51562 41.9922 3.51562C43.2474 3.51562 44.276 3.92448 45.0781 4.74219C45.8802 5.55469 46.2812 6.58333 46.2812 7.82812C46.2812 9.08333 45.875 10.125 45.0625 10.9531C44.2552 11.776 43.237 12.1875 42.0078 12.1875C41.2474 12.1875 40.5208 12.0156 39.8281 11.6719C39.1406 11.3281 38.6172 10.8255 38.2578 10.1641C37.8984 9.4974 37.7188 8.6875 37.7188 7.73438ZM39.9688 7.85156C39.9688 8.67448 40.1641 9.30469 40.5547 9.74219C40.9453 10.1797 41.4271 10.3984 42 10.3984C42.5729 10.3984 43.0521 10.1797 43.4375 9.74219C43.8281 9.30469 44.0234 8.66927 44.0234 7.83594C44.0234 7.02344 43.8281 6.39844 43.4375 5.96094C43.0521 5.52344 42.5729 5.30469 42 5.30469C41.4271 5.30469 40.9453 5.52344 40.5547 5.96094C40.1641 6.39844 39.9688 7.02865 39.9688 7.85156ZM47.8438 3.70312H49.8672V4.83594C50.5911 3.95573 51.4531 3.51562 52.4531 3.51562C52.9844 3.51562 53.4453 3.625 53.8359 3.84375C54.2266 4.0625 54.5469 4.39323 54.7969 4.83594C55.1615 4.39323 55.5547 4.0625 55.9766 3.84375C56.3984 3.625 56.849 3.51562 57.3281 3.51562C57.9375 3.51562 58.4531 3.64062 58.875 3.89062C59.2969 4.13542 59.612 4.4974 59.8203 4.97656C59.9714 5.33073 60.0469 5.90365 60.0469 6.69531V12H57.8516V7.25781C57.8516 6.4349 57.776 5.90365 57.625 5.66406C57.4219 5.35156 57.1094 5.19531 56.6875 5.19531C56.3802 5.19531 56.0911 5.28906 55.8203 5.47656C55.5495 5.66406 55.3542 5.9401 55.2344 6.30469C55.1146 6.66406 55.0547 7.23438 55.0547 8.01562V12H52.8594V7.45312C52.8594 6.64583 52.8203 6.125 52.7422 5.89062C52.6641 5.65625 52.5417 5.48177 52.375 5.36719C52.2135 5.2526 51.9922 5.19531 51.7109 5.19531C51.3724 5.19531 51.0677 5.28646 50.7969 5.46875C50.526 5.65104 50.3307 5.91406 50.2109 6.25781C50.0964 6.60156 50.0391 7.17188 50.0391 7.96875V12H47.8438V3.70312ZM67.0469 9.35938L69.2344 9.72656C68.9531 10.5286 68.5078 11.1406 67.8984 11.5625C67.2943 11.9792 66.5365 12.1875 65.625 12.1875C64.1823 12.1875 63.1146 11.7161 62.4219 10.7734C61.875 10.0182 61.6016 9.0651 61.6016 7.91406C61.6016 6.53906 61.9609 5.46354 62.6797 4.6875C63.3984 3.90625 64.3073 3.51562 65.4062 3.51562C66.6406 3.51562 67.6146 3.92448 68.3281 4.74219C69.0417 5.55469 69.3828 6.80208 69.3516 8.48438H63.8516C63.8672 9.13542 64.0443 9.64323 64.3828 10.0078C64.7214 10.3672 65.1432 10.5469 65.6484 10.5469C65.9922 10.5469 66.2812 10.4531 66.5156 10.2656C66.75 10.0781 66.9271 9.77604 67.0469 9.35938ZM67.1719 7.14062C67.1562 6.50521 66.9922 6.02344 66.6797 5.69531C66.3672 5.36198 65.987 5.19531 65.5391 5.19531C65.0599 5.19531 64.6641 5.36979 64.3516 5.71875C64.0391 6.06771 63.8854 6.54167 63.8906 7.14062H67.1719ZM75.5078 12V0.546875H77.7031V4.67188C78.3802 3.90104 79.1823 3.51562 80.1094 3.51562C81.1198 3.51562 81.9557 3.88281 82.6172 4.61719C83.2786 5.34635 83.6094 6.39583 83.6094 7.76562C83.6094 9.18229 83.2708 10.2734 82.5938 11.0391C81.9219 11.8047 81.1042 12.1875 80.1406 12.1875C79.6667 12.1875 79.1979 12.0703 78.7344 11.8359C78.276 11.5964 77.8802 11.2448 77.5469 10.7812V12H75.5078ZM77.6875 7.67188C77.6875 8.53125 77.8229 9.16667 78.0938 9.57812C78.474 10.1615 78.9792 10.4531 79.6094 10.4531C80.0938 10.4531 80.5052 10.2474 80.8438 9.83594C81.1875 9.41927 81.3594 8.76562 81.3594 7.875C81.3594 6.92708 81.1875 6.24479 80.8438 5.82812C80.5 5.40625 80.0599 5.19531 79.5234 5.19531C78.9974 5.19531 78.5599 5.40104 78.2109 5.8125C77.862 6.21875 77.6875 6.83854 77.6875 7.67188ZM87.0234 6.23438L85.0312 5.875C85.2552 5.07292 85.6406 4.47917 86.1875 4.09375C86.7344 3.70833 87.5469 3.51562 88.625 3.51562C89.6042 3.51562 90.3333 3.63281 90.8125 3.86719C91.2917 4.09635 91.6276 4.39062 91.8203 4.75C92.0182 5.10417 92.1172 5.75781 92.1172 6.71094L92.0938 9.27344C92.0938 10.0026 92.1276 10.5417 92.1953 10.8906C92.2682 11.2344 92.401 11.6042 92.5938 12H90.4219C90.3646 11.8542 90.2943 11.638 90.2109 11.3516C90.1745 11.2214 90.1484 11.1354 90.1328 11.0938C89.7578 11.4583 89.3568 11.7318 88.9297 11.9141C88.5026 12.0964 88.0469 12.1875 87.5625 12.1875C86.7083 12.1875 86.0339 11.9557 85.5391 11.4922C85.0495 11.0286 84.8047 10.4427 84.8047 9.73438C84.8047 9.26562 84.9167 8.84896 85.1406 8.48438C85.3646 8.11458 85.6771 7.83333 86.0781 7.64062C86.4844 7.44271 87.0677 7.27083 87.8281 7.125C88.8542 6.93229 89.5651 6.7526 89.9609 6.58594V6.36719C89.9609 5.94531 89.8568 5.64583 89.6484 5.46875C89.4401 5.28646 89.0469 5.19531 88.4688 5.19531C88.0781 5.19531 87.7734 5.27344 87.5547 5.42969C87.3359 5.58073 87.1589 5.84896 87.0234 6.23438ZM89.9609 8.01562C89.6797 8.10938 89.2344 8.22135 88.625 8.35156C88.0156 8.48177 87.6172 8.60938 87.4297 8.73438C87.1432 8.9375 87 9.19531 87 9.50781C87 9.8151 87.1146 10.0807 87.3438 10.3047C87.5729 10.5286 87.8646 10.6406 88.2188 10.6406C88.6146 10.6406 88.9922 10.5104 89.3516 10.25C89.6172 10.0521 89.7917 9.8099 89.875 9.52344C89.9323 9.33594 89.9609 8.97917 89.9609 8.45312V8.01562ZM101.523 6.15625L99.3594 6.54688C99.2865 6.11458 99.1198 5.78906 98.8594 5.57031C98.6042 5.35156 98.2708 5.24219 97.8594 5.24219C97.3125 5.24219 96.875 5.43229 96.5469 5.8125C96.224 6.1875 96.0625 6.81771 96.0625 7.70312C96.0625 8.6875 96.2266 9.38281 96.5547 9.78906C96.888 10.1953 97.3333 10.3984 97.8906 10.3984C98.3073 10.3984 98.6484 10.2812 98.9141 10.0469C99.1797 9.80729 99.3672 9.39844 99.4766 8.82031L101.633 9.1875C101.409 10.1771 100.979 10.9245 100.344 11.4297C99.7083 11.9349 98.8568 12.1875 97.7891 12.1875C96.5755 12.1875 95.6068 11.8047 94.8828 11.0391C94.1641 10.2734 93.8047 9.21354 93.8047 7.85938C93.8047 6.48958 94.1667 5.42448 94.8906 4.66406C95.6146 3.89844 96.5938 3.51562 97.8281 3.51562C98.8385 3.51562 99.6406 3.73438 100.234 4.17188C100.833 4.60417 101.263 5.26562 101.523 6.15625ZM103.117 12V0.546875H105.312V6.625L107.883 3.70312H110.586L107.75 6.73438L110.789 12H108.422L106.336 8.27344L105.312 9.34375V12H103.117Z" fill="black" fill-opacity="0.6"/>
</svg>
